<?xml version="1.0" encoding="UTF-8" standalone="no"?>
<svg xmlns="http://www.w3.org/2000/svg" viewBox="0 0 1200 720">
  <path fill="#4b63ad" d="M0,0h1200v720H0V0z"/>
  <path fill="#55b047" d="M0,0h1200v540H0V0z"/>
  <path fill="#f4eb24" d="M0,0h1200v360H0V0z"/>
  <path fill="#ec732e" d="M0,0h1200v180H0V0z"/>
  <path style="fill:#ffffff;stroke:#000000;stroke-width:3.5;" d="m 594.21915,37.112863 c -59.74647,-1.12638 -124.29236,21.278566 -156.96376,74.145857 -21.02307,33.28242 -28.75791,83.64494 0.98359,114.29597 28.29665,30.59195 88.35581,19.34956 97.7719,-23.14661 8.3455,-33.63362 -13.79561,-63.67632 -25.8087,-93.14142 0.45307,-29.593226 39.99454,-38.822739 64.01753,-33.766746 40.02965,8.994239 60.68637,51.451156 62.37849,89.497976 4.41052,46.04363 3.21398,97.02654 -24.61302,134.4951 -39.32919,52.95606 -57.42358,176.48671 -46.97394,173.30637 h 23.44829 c 0,0 8.68894,-73.60109 37.64598,-95.96826 45.788,-39.63519 106.01085,-65.84841 136.54585,-120.8587 C 794.73827,200.80382 785.22875,124.25052 736.39937,81.770485 698.76393,46.14929 644.31707,36.315438 594.21915,37.112863 Z M 580.82188,532.78308 c -42.54982,-5.2e-4 -77.04361,34.49273 -77.04372,77.04255 8e-5,42.54985 34.49388,77.04313 77.04372,77.04259 42.5494,-1.1e-4 77.04247,-34.49319 77.04255,-77.04259 -1.1e-4,-42.54937 -34.49317,-77.04243 -77.04255,-77.04255 z"/>
</svg>

